<?xml version="1.0" encoding="UTF-8"?>
<svg id="Layer_1" data-name="Layer 1" xmlns="http://www.w3.org/2000/svg" version="1.1" viewBox="0 0 746.9 156.4">
  <defs>
    <style>
      .cls-1 {
        fill: #fff;
        stroke-width: 0px;
      }
    </style>
  </defs>
  <g>
    <g>
      <g>
        <polygon class="cls-1" points="422.1 48.9 394 48.9 394 54.2 405.1 54.2 405.1 96.2 411 96.2 411 54.2 422.1 54.2 422.1 48.9"/>
        <path class="cls-1" d="M459.4,77.9c0-.7,0-29,0-29h-5.7v29.6c0,4.4-1.4,12.9-10.4,12.9-8.5,0-10.2-8.7-10.6-13.9v-28.6h-5.7v29s-1,18.6,16.2,18.6c0,0,15.2,1.5,16-17.9v-.6Z"/>
        <path class="cls-1" d="M485.5,96.2h7c0,0-10.5-16.6-10.5-16.6,4.3-1.5,10.4-5.4,10.4-15,0-15-14.9-15.7-14.9-15.7h-10.4c0,0-2.5,0-2.5,0v47.3h5.6v-15.6h5.8c0,0,9.7,15.6,9.7,15.6ZM470.1,54.2c2.4,0,5.7,0,7.1,0,2.1,0,9.2,2,9.2,10.9s-9.5,10.7-9.5,10.7h-6.8c0,.1,0-21.5,0-21.5Z"/>
        <rect class="cls-1" x="496.2" y="48.9" width="5.7" height="47.2"/>
        <path class="cls-1" d="M512,81.5l-5.7,2.1s2.7,13.4,15,13.4c12.3,0,15.2-12.7,14.9-15.1s-1-9-7.5-12.8c-6.6-3.8-12.6-4-12.6-10.1s5.3-5.8,5.3-5.8c0,0,5,.4,5.3,5.1l5.3-2.1s-2.3-7.9-10.8-8-11,6.8-11.2,11c-.1,4.3,3.5,9.2,8.6,11,5.1,1.9,12.1,5.7,11.6,12.3-.5,6.6-5.9,8.9-9,8.9s-8.6-1.9-8.9-10.1h-.4Z"/>
        <polygon class="cls-1" points="540.9 96.1 546.9 96.2 546.9 57.8 562.5 78.2 578.2 58 578.2 96.1 584.1 96.1 584.2 49 577.7 49 562.6 68.7 547.2 48.9 541.1 49 540.9 96.1"/>
        <path class="cls-1" d="M612.5,48.2c-13.5,0-24.4,10.8-24.4,24.2s10.9,24.2,24.4,24.2,24.4-10.8,24.4-24.2-10.9-24.2-24.4-24.2ZM612.2,91.4c-10.2-.1-18.4-8.7-18.2-19.2.1-10.4,8.5-18.8,18.8-18.7,10.2.1,18.4,8.7,18.2,19.2-.1,10.4-8.5,18.8-18.8,18.7Z"/>
        <polygon class="cls-1" points="488.9 42.5 492.2 42.5 492.2 30.1 497.9 38.2 503.4 30 503.4 42.5 506.7 42.5 506.8 24.5 503.1 24.5 497.9 33 492.2 24.5 488.8 24.5 488.9 42.5"/>
        <path class="cls-1" d="M535.4,24.1h-2.5l-8.2,18.4h3.4s2-4.2,2-4.2h7.8c0,0,2.3,4.3,2.3,4.3h3.3s-8.1-18.5-8.1-18.5ZM531.1,35.3l3.1-6.9,3,6.8h-6Z"/>
        <path class="cls-1" d="M583.6,24.2h-2.5l-8.2,18.4h3.4s2-4.2,2-4.2h7.8c0,0,2.3,4.3,2.3,4.3h3.3s-8.1-18.5-8.1-18.5ZM579.3,35.4l3.1-6.9,3,6.8h-6Z"/>
        <polygon class="cls-1" points="546.5 42.6 549.6 42.5 549.7 29.6 559.5 42.5 562.3 42.5 562.3 24.1 559 24.1 559 36.6 549.4 24.1 546.5 24.1 546.5 42.6"/>
        <path class="cls-1" d="M549.5,22.9l2,.4s0-1.6,1.2-1.6,2.7,1.5,3.7,1.5,2.4-1.5,3.2-3.1l-1.8-.7s-.2,1.3-1.7,1.3-2.2-1.2-3.7-1.3c-1.5,0-2.8,3.6-2.8,3.6Z"/>
        <polygon class="cls-1" points="567.1 23.2 569.7 23.2 572.9 20.5 570 19.3 567.1 23.2"/>
        <rect class="cls-1" x="566.6" y="24.5" width="3.5" height="17.8"/>
        <path class="cls-1" d="M476,24c-5.2,0-9.4,4.2-9.4,9.3s4.2,9.3,9.4,9.3,9.4-4.2,9.4-9.3c0-5.1-4.2-9.3-9.4-9.3ZM476,39.8c-3.3,0-6-2.8-6-6.3s2.7-6.3,6-6.3,6,2.8,6,6.3-2.7,6.3-6,6.3Z"/>
        <path class="cls-1" d="M462.3,37.3c-1.1,1.4-2.8,2.3-4.7,2.3-3.3,0-6-2.8-6-6.3s2.7-6.3,6-6.3,3.6.9,4.7,2.4l2.4-2.2c-1.7-2-4.3-3.3-7.1-3.3-5.2,0-9.4,4.2-9.4,9.3s4.2,9.3,9.4,9.3,5.3-1.2,7-3.2l-2.3-2.1Z"/>
        <path class="cls-1" d="M518.8,24.5h-6.6s-1.2,0-1.2,0v18h3.5v-5.9h4.6s6-.7,6-6.1c0-5.4-6.3-6-6.3-6ZM518.8,34h-4.1v-6.5h3.7s3.6,0,3.6,3.1c0,3-3.2,3.4-3.2,3.4Z"/>
        <polygon class="cls-1" points="635.8 27.5 635.8 24.1 625.6 24.1 623.1 24.1 622.2 24.1 622.2 42.5 623.7 42.5 625.6 42.5 635.8 42.5 635.8 39.5 625.6 39.5 625.6 34.8 634.6 34.8 634.6 31.8 625.6 31.8 625.6 27.5 635.8 27.5"/>
        <path class="cls-1" d="M610.6,24.1h-8.1v18.4h8c0,0,8.2-.9,8.3-9.3,0-8.4-8.2-9.1-8.2-9.1ZM610.8,39.1h-4.9v-11.7h3.6c1.7.2,5.9,1.3,5.9,5.9,0,4.7-4.6,5.8-4.6,5.8Z"/>
      </g>
      <g>
        <polygon class="cls-1" points="509.7 104.5 495.5 104.5 495.5 107.3 501.1 107.3 501.1 129.4 504.1 129.4 504.1 107.3 509.7 107.3 509.7 104.5"/>
        <path class="cls-1" d="M451.1,119.5c0-.4,0-15.2,0-15.2h-3v15.5c0,2.3-.7,6.8-5.4,6.8-4.4,0-5.4-4.6-5.5-7.3v-15h-3v15.2s-.5,9.7,8.5,9.7c0,0,8,.8,8.4-9.4v-.3Z"/>
        <path class="cls-1" d="M487.4,129.5h3.7s-5.5-8.8-5.5-8.8c2.3-.8,5.4-2.9,5.4-7.9,0-8-7.8-8.3-7.8-8.3h-5.5s-1.3,0-1.3,0v25.1h2.9v-8.3h3s5.1,8.3,5.1,8.3ZM479.3,107.2c1.2,0,3,0,3.7,0,1.1,0,4.8,1.1,4.8,5.8s-5,5.7-5,5.7h-3.6c0,0,0-11.4,0-11.4Z"/>
        <path class="cls-1" d="M567,129.6h3.7s-5.5-8.8-5.5-8.8c2.3-.8,5.4-2.9,5.4-7.9,0-8-7.8-8.3-7.8-8.3h-5.5s-1.3,0-1.3,0v25.1h3v-8.3h3s5.1,8.3,5.1,8.3ZM559,107.3c1.2,0,3,0,3.7,0,1.1,0,4.8,1.1,4.8,5.8s-5,5.7-5,5.7h-3.6c0,0,0-11.4,0-11.4Z"/>
        <path class="cls-1" d="M525.5,104.1c-7.1,0-12.8,5.6-12.8,12.6s5.8,12.6,12.8,12.6,12.8-5.6,12.8-12.6c0-7-5.8-12.6-12.8-12.6ZM525.4,126.5c-5.4,0-9.7-4.5-9.6-9.9,0-5.4,4.5-9.8,9.9-9.7s9.7,4.5,9.6,9.9c0,5.4-4.5,9.8-9.9,9.7Z"/>
        <path class="cls-1" d="M623.7,104c-7.1,0-12.8,5.6-12.8,12.6s5.8,12.6,12.8,12.6,12.8-5.6,12.8-12.6-5.8-12.6-12.8-12.6ZM623.5,126.4c-5.4,0-9.7-4.5-9.6-9.9,0-5.4,4.5-9.8,9.9-9.7,5.4,0,9.7,4.5,9.6,9.9,0,5.4-4.5,9.8-9.9,9.7Z"/>
        <rect class="cls-1" x="576.4" y="104.2" width="2.5" height="24.9"/>
        <polygon class="cls-1" points="470.4 107.2 470.4 104.2 457.2 104.2 457.2 104.3 457.2 107.2 457.2 129.1 458.7 129.1 459.8 129.1 470.4 129.1 470.4 126.2 459.8 126.2 459.8 118.1 470.4 118.1 470.4 115.1 459.8 115.1 459.8 107.2 470.4 107.2"/>
        <path class="cls-1" d="M422.2,104.3h-8.1v24.8h2.9v-8.2h5.1c0,0,6.5-1.4,6.5-8.3,0-6.9-6.4-8.4-6.4-8.4ZM421.8,118.1h-4.9v-10.8h4.8s3.8.7,3.8,5.3-3.8,5.5-3.8,5.5Z"/>
        <path class="cls-1" d="M604.3,123.4c-1.7,2-4.2,3.2-7,3.2-5.2,0-9.5-4.4-9.5-9.9s4.2-9.9,9.5-9.9,5.3,1.3,7,3.2c.8-.8,1.6-1.6,2.3-2.3-2.3-2.5-5.5-4.1-9.1-4.1-7,0-12.6,5.8-12.6,13s5.6,13,12.6,13,6.9-1.6,9.2-4.1l-2.4-2.2Z"/>
      </g>
    </g>
    <g>
      <g>
        <path class="cls-1" d="M648.8,0l.3,83c1.4.2,3.2.6,4.8.8,3.1.6,2.8-2.8,2.8-2.8v-10.4s-4-.4-4-2.2,2.5-3.6,2.5-3.6c0,0,1.4-7.5,3.5-11,2.1-3.5,6.9-3.9,6.9-3.9l1.3-2.8c-.3-.4-.6-1-.6-1.6,0-1.4,1.1-2.5,2.4-2.5s2.4,1.1,2.4,2.5-.3,1.4-.8,1.9l1.2,2.6s3.1.1,6.2,3,3.9,11.2,3.9,11.2c0,0,2.6,1.2,2.6,3.6s-3.5,2.7-3.5,2.7v22.6s2,1.2,1.9,3c-.1,1.8-2.6,2.8-2.6,2.8,0,0-1.6,4.2-5.1,6.6s-6,1.6-8.1,2.9c-2.1,1.3-1.8,3.2-2.3,3.8-.5.6-3.7.4-3.7.4-5.9,7.7-9.6,11.5-11.7,13.4v30.3s56.9-79.2,56.9-79.2L648.8,0Z"/>
        <path class="cls-1" d="M672,71.5s-.2-3.8-3.3-3.8-3.5,3.8-3.5,3.8v16.9h6.7c0,.1.1-16.9.1-16.9Z"/>
      </g>
      <path class="cls-1" d="M706,77.2l-56.8,79.2v-30.3c2.1-1.9,5.7-5.7,11.6-13.4,0,0,3.2.1,3.7-.4.5-.6.2-2.5,2.3-3.8,2.1-1.3,4.6-.6,8.1-2.9,3.5-2.3,5.1-6.6,5.1-6.6,0,0,2.5-1,2.6-2.8s-1.9-3-1.9-3v-22.6s3.5-.3,3.5-2.7-2.6-3.6-2.6-3.6c0,0-.8-8.3-3.9-11.2-3.2-2.9-6.2-3-6.2-3l-1.2-2.6c.5-.5.8-1.1.8-1.9,0-1.4-1.1-2.5-2.4-2.5s-2.4,1.1-2.4,2.5.2,1.2.6,1.6l-1.3,2.8s-4.8.5-6.9,3.9c-2.1,3.5-3.5,11-3.5,11,0,0-2.5,1.8-2.5,3.6s4,2.2,4,2.2v10.4s.2,3.3-2.8,2.8c-1.6-.3-3.4-.6-4.8-.8l-.3-83,57.2,77.2ZM672,71.5s-.2-3.8-3.3-3.8-3.5,3.8-3.5,3.8v16.9h6.7c0,.1.1-16.9.1-16.9Z"/>
      <g>
        <polygon class="cls-1" points="683.4 46.7 706 77.2 741.5 27.9 683.4 46.7"/>
        <polygon class="cls-1" points="705 78.6 705 78.6 696.4 90.5 683.2 109 741 127.7 706 77.2 705 78.6"/>
      </g>
    </g>
  </g>
  <g>
    <polygon class="cls-1" points="0 45.4 14.6 45.4 22.2 66.8 29.8 45.4 44.2 45.4 28.3 83.7 15.8 83.7 0 45.4"/>
    <path class="cls-1" d="M42.4,64.5h0c0-11.2,9.3-20,21.4-20s21.2,8.7,21.2,19.8h0c0,11.2-9.3,20-21.4,20-12.1,0-21.2-8.7-21.2-19.8M71.8,64.5h0c0-4.6-3.2-8.7-8.2-8.7s-8.1,4-8.1,8.5h0c0,4.6,3.2,8.7,8.2,8.7s8.1-4,8.1-8.5"/>
    <polygon class="cls-1" points="96.3 70 81.6 45.4 96.2 45.4 102.9 57.9 109.6 45.4 124.1 45.4 109.3 69.8 109.3 83.5 96.3 83.5 96.3 70"/>
    <polygon class="cls-1" points="138.8 56.1 127.3 56.1 127.3 45.4 163.3 45.4 163.3 56.1 151.8 56.1 151.8 83.5 138.8 83.5 138.8 56.1"/>
    <path class="cls-1" d="M165.9,66.4v-21h13.3v20.9c0,4.7,2.5,6.8,6,6.8s6-1.8,6-6.5v-21.1h13.3v20.7c0,13-7.8,18.1-19.4,18.1s-19.2-5.2-19.2-17.8"/>
    <path class="cls-1" d="M208.7,45.4h19.1c6.9,0,11.3,1.7,14.1,4.4,2.3,2.3,3.6,5.1,3.6,9h0c0,5.7-3,9.5-7.7,11.8l9.1,13h-14.9l-7.4-10.9h-2.8v10.9h-13.1v-38.1h0ZM227.4,63.5c3.1,0,5-1.4,5-3.7h0c0-2.6-1.9-3.8-5-3.8h-5.7v7.5s5.6,0,5.6,0Z"/>
    <rect class="cls-1" x="248.7" y="45.4" width="13" height="38.1"/>
    <path class="cls-1" d="M263.1,77.8l7-8.1c4.2,3.2,9.1,4.5,13.7,4.5s3.4-.6,3.4-1.6h0c0-1.2-1.2-1.8-5.4-2.6-8.8-1.7-16.5-4.2-16.5-12.2h0c0-7.3,5.8-13,16.6-13s13.1,1.7,17.6,5.2l-6.4,8.6c-3.7-2.6-8.1-3.8-11.7-3.8s-2.9.7-2.9,1.6h0c0,1.1,1.1,1.8,5.2,2.6,10,1.8,16.7,4.6,16.7,12.3h0c0,8.1-6.8,13-17.2,13-7.9,0-15.1-2.2-20-6.4"/>
    <polygon class="cls-1" points="64.4 98.7 52.9 98.7 52.9 88 88.9 88 88.9 98.7 77.4 98.7 77.4 126.1 64.4 126.1 64.4 98.7"/>
    <polygon class="cls-1" points="91.9 88 125.2 88 125.2 98.4 104.7 98.4 104.7 102.3 123.8 102.3 123.8 111.5 104.7 111.5 104.7 115.6 125.5 115.6 125.5 126.1 91.9 126.1 91.9 88"/>
    <path class="cls-1" d="M142.6,87.7h12.9l16.5,38.4h-14.2l-2.1-5.1h-13.7l-2,5.1h-13.9l16.4-38.4ZM152.5,111.9l-3.6-9.2-3.6,9.2h7.1Z"/>
    <polygon class="cls-1" points="173.6 88 185.8 88 199.7 104.8 199.7 88 212.7 88 212.7 126.1 201.1 126.1 186.6 108.5 186.6 126.1 173.6 126.1 173.6 88"/>
    <path class="cls-1" d="M217.1,88h14.9c15.5,0,23.3,7.5,23.3,18.7h0c0,11.4-7.9,19.4-23.7,19.4h-14.5v-38.1h0ZM232.4,115c6,0,9.8-2.4,9.8-7.9h0c0-5.6-3.9-8-9.8-8h-2.2v15.9h2.2Z"/>
    <path class="cls-1" d="M258,107.1h0c0-11.2,9.3-20,21.4-20s21.2,8.7,21.2,19.8h0c0,11.2-9.3,20-21.4,20-12.1,0-21.3-8.7-21.3-19.8M287.5,107.1h0c0-4.6-3.2-8.7-8.2-8.7s-8.1,4-8.1,8.5h0c0,4.6,3.2,8.7,8.2,8.7s8.1-4,8.1-8.5"/>
  </g>
</svg>